<svg xmlns="http://www.w3.org/2000/svg" shape-rendering="geometricPrecision" text-rendering="geometricPrecision" image-rendering="optimizeQuality" fill-rule="evenodd" clip-rule="evenodd" viewBox="0 0 512 490.12"><path fill-rule="nonzero" d="M294.45 29.89c12.39 3.81 24.22 9.02 35.29 15.45a155.907 155.907 0 0 0-30.77 14.98c-5.89-2.43-11.96-4.48-18.19-6.11-4.49-1.17-8.25-4.59-9.63-9.36-1.75-6.02-5.46-10.49-10.08-13.37l-.62-.35c-4.38-2.58-9.63-3.89-14.92-3.89-5.29 0-10.51 1.29-14.79 3.84-4.73 2.82-8.57 7.36-10.34 13.58-1.34 4.53-4.98 8.27-9.89 9.46-26.92 6.56-50.97 21.18-69.52 40.93-18.63 19.82-31.71 44.84-36.65 72.17-3.35 18.46-2.92 41.68-2.53 63.04l.3 19.83c0 31.56-5.51 58.12-17.72 81.51C72.7 353.97 55 373.02 30.3 390.31l429.53.01c-18.54-12.91-33.12-26.87-44.17-42.52 9.56-2.02 18.81-4.9 27.65-8.57 9.22 11.19 20.97 21.46 35.5 31.18 5.63 3.75 9.05 8.99 10.54 14.56 1.25 4.66 1.08 9.64-.3 14.2-1.39 4.6-4.03 8.84-7.64 12l-1.14.92c-4.2 3.28-9.57 5.34-15.73 5.37l-136.31.02-.1.37c-16.52 96.55-150.09 96.29-166.17-.33l-136.25.03c-7.13 0-13.11-2.71-17.57-6.91-3.5-3.28-5.95-7.5-7.19-11.99-1.23-4.44-1.29-9.28-.04-13.85 1.63-5.92 5.37-11.38 11.47-15.07 22.31-15.2 37.98-31.61 47.95-50.69 10.03-19.19 14.55-41.69 14.55-68.95l-.2-19.42c-.4-22.63-.86-47.22 2.95-68.24 5.89-32.63 21.46-62.44 43.58-85.99 20.42-21.73 46.5-38.24 75.83-46.79 4.41-9.61 11.43-16.9 19.75-21.87C225.48 2.59 235.58 0 245.53 0c9.97 0 20.05 2.59 28.76 7.73l.81.51c8.13 5 14.98 12.22 19.35 21.65zm144.96 154.63v18.36c0 4.3-3.61 7.91-7.91 7.91h-97.23c-4.31 0-7.92-3.56-7.92-7.91v-18.36c0-4.36 3.56-7.92 7.92-7.92h97.23c4.36 0 7.91 3.65 7.91 7.92zM382.89 64.59c35.63 0 67.94 14.46 91.29 37.81 23.35 23.36 37.82 55.66 37.82 91.29 0 35.62-14.47 67.88-37.82 91.25-23.4 23.39-55.67 37.85-91.29 37.85-35.61 0-67.89-14.46-91.26-37.81-23.39-23.36-37.85-55.66-37.85-91.29 0-35.63 14.46-67.93 37.81-91.29l.63-.58c23.33-23 55.35-37.23 90.67-37.23zm75.65 53.45c-19.34-19.34-46.1-31.33-75.65-31.33-29.3 0-55.85 11.77-75.18 30.82l-.48.51c-19.34 19.34-31.33 46.11-31.33 75.65 0 29.54 11.99 56.31 31.33 75.65 19.34 19.36 46.12 31.33 75.66 31.33 29.55 0 56.31-11.97 75.67-31.32 19.35-19.35 31.31-46.12 31.31-75.66s-11.99-56.31-31.33-75.65z"/></svg>