<svg width="8600" height="1136" viewBox="0 0 8600 1136" fill="none" xmlns="http://www.w3.org/2000/svg">
<path d="M1825.58 490.386C1825.58 451.463 1834.13 419.027 1851.23 393.078C1867.74 366.54 1888.39 346.193 1913.16 332.039C1937.92 317.885 1962.4 310.809 1986.58 310.809C2024.32 310.809 2056.76 317.296 2083.89 330.27C2110.43 343.245 2131.66 360.052 2147.58 380.694L2197.12 223.231C2177.07 203.18 2151.71 186.962 2121.04 174.577C2089.78 162.192 2049.09 156 1998.96 156C1927.01 156 1864.8 171.039 1812.31 201.116C1759.23 231.193 1718.24 271.59 1689.35 322.309C1660.45 372.437 1646 428.463 1646 490.386C1646 552.31 1660.45 608.631 1689.35 659.349C1718.24 709.477 1759.23 749.58 1812.31 779.657C1864.8 809.734 1927.01 824.773 1998.96 824.773C2049.09 824.773 2089.78 818.581 2121.04 806.196C2151.71 793.811 2177.07 777.888 2197.12 758.426L2147.58 600.964C2131.66 621.605 2110.43 638.413 2083.89 651.387C2056.76 663.772 2024.32 669.964 1986.58 669.964C1962.4 669.964 1937.92 662.887 1913.16 648.733C1888.39 635.169 1867.74 615.118 1851.23 588.579C1834.13 562.041 1825.58 529.31 1825.58 490.386ZM2451 562.041C2451 532.553 2458.38 507.194 2473.12 485.963C2487.86 464.143 2510.27 453.232 2540.35 453.232C2569.84 453.232 2591.95 464.143 2606.7 485.963C2622.03 507.194 2629.7 532.553 2629.7 562.041C2629.7 592.118 2622.03 617.772 2606.7 639.003C2591.95 659.644 2569.84 669.964 2540.35 669.964C2510.27 669.964 2487.86 659.644 2473.12 639.003C2458.38 617.772 2451 592.118 2451 562.041ZM2290 562.041C2290 610.99 2300.62 654.336 2321.85 692.08C2343.67 729.234 2373.16 758.721 2410.31 780.542C2448.06 801.773 2491.4 812.388 2540.35 812.388C2588.71 812.388 2631.76 802.657 2669.51 783.196C2707.25 763.144 2736.74 734.247 2757.97 696.503C2779.79 659.349 2790.7 614.528 2790.7 562.041C2790.7 510.143 2779.79 465.617 2757.97 428.463C2736.74 390.719 2707.25 361.822 2669.51 341.77C2631.76 321.129 2588.71 310.809 2540.35 310.809C2491.4 310.809 2448.06 321.129 2410.31 341.77C2373.16 361.822 2343.67 390.719 2321.85 428.463C2300.62 465.617 2290 510.143 2290 562.041ZM3371.01 800.003V323.193H3203.82V620.426C3192.61 638.118 3178.46 652.862 3161.35 664.657C3144.25 676.452 3126.56 682.349 3108.28 682.349C3091.17 682.349 3077.32 675.272 3066.7 661.118C3056.08 647.554 3050.78 622.49 3050.78 585.925V323.193H2883.58V623.079C2883.58 683.234 2897.44 729.824 2925.16 762.849C2952.29 795.875 2992.69 812.388 3046.35 812.388C3074.66 812.388 3102.97 803.247 3131.28 784.965C3159 766.093 3183.18 741.324 3203.82 710.657V800.003H3371.01ZM3791.2 524.887L3884.09 401.04C3875.83 390.424 3866.4 378.629 3855.78 365.655C3844.58 352.091 3831.31 340.591 3815.97 331.155C3800.05 321.719 3780.59 317.001 3757.59 317.001C3734.59 317.001 3711 326.142 3686.82 344.424C3663.23 362.706 3642.29 386.591 3624.01 416.078L3612.51 323.193H3470.09V800.003H3637.28V502.771C3647.9 492.156 3659.4 483.309 3671.78 476.233C3684.17 469.156 3696.25 465.617 3708.05 465.617C3731.05 465.617 3747.56 471.22 3757.59 482.425C3767.61 493.63 3778.82 507.784 3791.2 524.887ZM4148.59 661.118C4148.59 674.682 4143.28 683.823 4132.67 688.541C4122.05 692.67 4108.19 694.734 4091.09 694.734C4079.89 694.734 4061.31 689.721 4035.36 679.695C4008.82 670.259 3983.17 653.746 3958.4 630.156L3908.86 741.619C3940.12 770.516 3971.96 790.568 4004.4 801.773C4037.42 812.978 4074.58 818.581 4115.86 818.581C4147.71 818.581 4178.96 812.978 4209.63 801.773C4240.3 789.978 4265.66 771.696 4285.71 746.926C4305.76 722.157 4315.78 689.426 4315.78 648.733C4315.78 623.374 4309 602.143 4295.44 585.041C4281.28 568.528 4263.89 554.669 4243.25 543.464C4222.6 532.258 4201.96 522.233 4181.32 513.387C4160.68 504.54 4143.28 495.989 4129.13 487.733C4114.98 478.886 4107.9 468.271 4107.9 455.886C4107.9 437.604 4119.4 428.463 4142.4 428.463C4153.6 428.463 4168.05 433.181 4185.74 442.617C4203.44 452.053 4224.67 468.861 4249.44 493.04L4298.98 381.578C4268.31 352.681 4238.23 332.629 4208.74 321.424C4178.67 310.219 4152.13 304.616 4129.13 304.616C4097.87 304.616 4067.8 309.039 4038.9 317.885C4010 326.732 3986.41 341.77 3968.13 363.001C3949.85 384.232 3940.71 415.194 3940.71 455.886C3940.71 485.374 3947.78 509.848 3961.94 529.31C3976.09 548.182 3993.49 563.22 4014.13 574.425C4034.77 586.22 4055.41 596.541 4076.05 605.387C4096.69 613.644 4114.09 621.9 4128.24 630.156C4141.81 638.413 4148.59 648.733 4148.59 661.118ZM4396.28 562.041C4396.28 614.528 4408.08 659.349 4431.67 696.503C4455.26 734.247 4487.11 763.144 4527.21 783.196C4567.31 802.657 4611.25 812.388 4659.02 812.388C4701.48 812.388 4739.81 805.901 4774.02 792.927C4808.81 779.362 4837.42 759.016 4859.83 731.888L4785.52 616.887C4772.54 637.528 4756.92 654.631 4738.63 668.195C4720.35 681.759 4697.94 688.541 4671.4 688.541C4652.53 688.541 4635.72 685.003 4620.98 677.926C4606.82 670.259 4594.73 660.234 4584.71 647.849L4884.59 537.271C4884.59 493.63 4874.86 454.707 4855.4 420.501C4835.94 386.296 4808.22 359.463 4772.25 340.001C4736.27 320.539 4694.4 310.809 4646.63 310.809C4598.86 310.809 4556.11 321.129 4518.36 341.77C4480.03 361.822 4450.25 390.719 4429.02 428.463C4407.19 465.617 4396.28 510.143 4396.28 562.041ZM4741.29 470.925L4551.09 542.579C4552.86 514.271 4561.41 488.617 4576.75 465.617C4592.08 442.027 4616.56 430.232 4650.17 430.232C4670.81 430.232 4688.8 433.771 4704.13 440.848C4719.47 448.514 4731.85 458.54 4741.29 470.925ZM4983.67 180.769V800.003H5157.06V478.002L5355.21 812.388L5553.37 478.002V800.003H5726.75V180.769H5553.37L5355.21 515.156L5157.06 180.769H4983.67ZM6103.6 537.271V554.964C6087.68 546.118 6069.1 538.156 6047.87 531.079C6026.05 524.592 6002.46 521.348 5977.1 521.348C5929.33 521.348 5888.93 532.848 5855.91 555.848C5823.47 578.259 5807.25 613.349 5807.25 661.118C5807.25 701.811 5814.92 732.772 5830.25 754.003C5845.59 775.824 5865.05 791.157 5888.64 800.003C5912.23 808.26 5935.52 812.388 5958.52 812.388C5990.37 812.388 6018.68 806.491 6043.45 794.696C6067.63 782.901 6087.68 768.157 6103.6 750.465V800.003H6270.79V500.117C6270.79 439.963 6254.87 393.373 6223.03 360.347C6191.18 327.321 6148.42 310.809 6094.76 310.809C6046.99 310.809 6001.58 320.245 5958.52 339.116C5915.47 357.399 5875.37 378.04 5838.22 401.04L5900.14 487.733C5924.91 470.63 5950.27 458.54 5976.22 451.463C6002.17 444.386 6021.04 440.848 6032.83 440.848C6062.32 440.848 6081.49 448.22 6090.33 462.963C6099.18 477.117 6103.6 501.887 6103.6 537.271ZM6103.6 635.464V685.003C6095.35 693.849 6085.02 701.811 6072.64 708.888C6060.85 715.375 6047.58 718.618 6032.83 718.618C6015.14 718.618 6003.05 712.131 5996.56 699.157C5990.08 686.182 5986.83 674.093 5986.83 662.887C5986.83 651.092 5991.25 639.887 6000.1 629.272C6008.36 618.656 6021.33 613.349 6039.02 613.349C6057.31 613.349 6071.17 615.708 6080.6 620.426C6090.04 625.733 6097.7 630.746 6103.6 635.464ZM6537.07 323.193H6369.87V979.581H6537.07V752.234C6577.17 792.337 6625.23 812.388 6681.26 812.388C6726.08 812.388 6764.41 801.478 6796.26 779.657C6828.11 757.837 6852.58 728.054 6869.68 690.311C6886.2 651.977 6894.45 608.926 6894.45 561.156C6894.45 513.387 6886.2 470.335 6869.68 432.001C6852.58 394.258 6828.11 364.77 6796.26 343.539C6764.41 321.719 6726.08 310.809 6681.26 310.809C6653.54 310.809 6627.3 316.706 6602.53 328.501C6577.76 339.706 6555.94 355.334 6537.07 375.386V323.193ZM6537.07 634.58V487.733C6561.83 456.476 6593.39 440.848 6631.72 440.848C6661.8 440.848 6685.39 451.758 6702.49 473.579C6719 495.399 6727.26 524.592 6727.26 561.156C6727.26 597.72 6719 626.913 6702.49 648.733C6685.39 671.144 6661.8 682.349 6631.72 682.349C6593.98 682.349 6562.42 666.426 6537.07 634.58ZM7154.53 323.193H6987.34V979.581H7154.53V752.234C7195.22 792.337 7243.58 812.388 7299.61 812.388C7344.43 812.388 7382.76 801.478 7414.61 779.657C7445.87 757.837 7470.04 728.054 7487.15 690.311C7504.25 651.977 7512.8 608.926 7512.8 561.156C7512.8 513.387 7504.25 470.335 7487.15 432.001C7470.04 394.258 7445.87 364.77 7414.61 343.539C7382.76 321.719 7344.43 310.809 7299.61 310.809C7271.3 310.809 7244.76 316.706 7219.99 328.501C7195.22 339.706 7173.4 355.334 7154.53 375.386V323.193ZM7154.53 634.58V487.733C7179.3 456.476 7211.15 440.848 7250.07 440.848C7279.56 440.848 7302.85 451.758 7319.95 473.579C7337.06 495.399 7345.61 524.592 7345.61 561.156C7345.61 597.72 7337.06 626.913 7319.95 648.733C7302.85 671.144 7279.56 682.349 7250.07 682.349C7212.33 682.349 7180.48 666.426 7154.53 634.58ZM7605.69 562.041C7605.69 614.528 7617.48 659.349 7641.07 696.503C7664.66 734.247 7696.51 763.144 7736.61 783.196C7776.12 802.657 7820.06 812.388 7868.42 812.388C7910.29 812.388 7948.62 805.901 7983.42 792.927C8018.21 779.362 8046.52 759.016 8068.34 731.888L7994.04 616.887C7981.06 637.528 7965.43 654.631 7947.15 668.195C7928.87 681.759 7906.75 688.541 7880.8 688.541C7861.34 688.541 7844.53 685.003 7830.38 677.926C7815.64 670.259 7803.55 660.234 7794.11 647.849L8093.11 537.271C8093.11 493.63 8083.68 454.707 8064.81 420.501C8045.34 386.296 8017.63 359.463 7981.65 340.001C7945.68 320.539 7903.8 310.809 7856.03 310.809C7807.68 310.809 7764.62 321.129 7726.88 341.77C7689.14 361.822 7659.35 390.719 7637.53 428.463C7616.3 465.617 7605.69 510.143 7605.69 562.041ZM7949.8 470.925L7760.5 542.579C7762.27 514.271 7770.82 488.617 7786.15 465.617C7800.89 442.027 7825.37 430.232 7859.57 430.232C7880.21 430.232 7898.2 433.771 7913.53 440.848C7928.87 448.514 7940.96 458.54 7949.8 470.925ZM8507.12 524.887L8600 401.04C8591.74 390.424 8582.31 378.629 8571.69 365.655C8561.08 352.091 8547.81 340.591 8531.88 331.155C8515.96 321.719 8496.5 317.001 8473.5 317.001C8450.5 317.001 8426.91 326.142 8402.73 344.424C8379.14 362.706 8358.2 386.591 8339.92 416.078L8328.42 323.193H8186V800.003H8353.19V502.771C8364.4 492.156 8376.19 483.309 8388.58 476.233C8400.96 469.156 8412.76 465.617 8423.96 465.617C8446.96 465.617 8463.47 471.22 8473.5 482.425C8483.52 493.63 8494.73 507.784 8507.12 524.887Z" fill="#EA580C"/>
<path d="M622.791 150.661C471.934 64.5926 310.082 12.6584 153.281 0V882.473C310.067 894.784 471.632 945.296 622.791 1029.16V150.661Z" fill="#EA580C"/>
<path d="M617.67 1074.8C629.98 1079 642.941 1079.18 655.252 1074.98C831.547 998.71 1016.17 964.379 1196.64 972.289V98.5874C1180.32 97.9157 1163.98 97.6383 1147.64 97.7556V908.286L1134.76 909.133C973.36 919.674 806.094 972.304 650.488 1061.09C641.518 1064.16 631.782 1064.16 622.812 1061.09C467.191 972.304 299.94 919.674 138.541 909.133L125.626 908.286V97.7556C109.293 97.6308 92.9597 97.9081 76.6406 98.5874V972.289C257.095 964.364 441.329 998.528 617.67 1074.8Z" fill="#EA580C"/>
<path d="M1273.28 196.664C1257.1 194.411 1240.66 193.216 1224.33 191.598V1001.46L1209.69 1000.62C1025.25 990.044 830.69 1027.49 650.493 1107.46L636.64 1113.23L622.802 1107.46C442.575 1027.49 248.026 990.029 63.5944 1000.62L48.97 1001.46V191.598C32.6214 193.231 16.1822 194.426 0 196.664V1084.52C5.73874 1087.58 11.0478 1091.38 15.789 1095.83C211.654 1069.37 414.944 1072.6 608.329 1135.93C617.742 1134.98 627.195 1134.5 636.655 1134.49C646.652 1134.49 656.089 1135.05 664.966 1135.93C858.321 1072.59 1061.64 1069.37 1257.49 1095.83C1257.49 1095.83 1264.66 1088.85 1273.28 1084.52V196.664Z" fill="#EA580C"/>
<path d="M860.476 55.3824V367.305L800.284 295.65L736.841 367.305V105.698C707.499 119.576 678.702 134.58 650.516 150.676V1029.16C801.645 945.296 963.255 894.784 1120.03 882.473V0C1034.14 6.9417 946.74 25.7251 860.476 55.3824Z" fill="#EA580C"/>
</svg>
