<svg width="8802" height="1137" viewBox="0 0 8802 1137" fill="none" xmlns="http://www.w3.org/2000/svg">
<path d="M594.799 531.346C420.155 458.999 266.77 452.486 125.938 510.999L117.266 489.634C264.014 428.838 423.367 435.58 603.718 510.104L594.799 531.346ZM603.718 649.777C423.578 575.358 264.014 568.617 117.266 629.307L125.956 650.567C267.227 592.282 420.383 598.918 594.817 671.037L603.718 649.777ZM603.718 370.413C423.578 296.012 264.014 289.253 117.266 349.837L125.956 371.22C267.227 312.812 420.383 319.431 594.817 391.69L603.718 370.413Z" fill="#0277BD"/>
<path d="M1380.72 646.004V1032.34C1056.57 827.038 776.315 1015.06 776.315 1047.17V363.11C776.315 241.607 937.02 176.001 1135 176.001C1189.63 176.001 1240.82 184.235 1287.01 197.595L1353.76 130.848C1022.06 29.3407 767.414 179.302 732.425 211.657C682.356 163.186 394.319 -4.71749 0 166.504V1105.7H599.142C619.718 1123.41 668.4 1136 725.333 1136C782.249 1136 830.948 1123.41 851.752 1105.7H1450.68V575.939L1380.72 646.004ZM678.933 1047.17C678.933 1015.06 398.445 827.038 74.7523 1032.32V235.779C138.761 198.754 225.17 176.001 320.269 176.001C518.228 176.001 678.933 241.607 678.933 363.11V1047.17Z" fill="#0277BD"/>
<path d="M821.844 510.093L830.534 531.353C899.335 502.79 970.207 487.358 1039.92 479.125L1049.98 454.898C974.087 462.552 896.824 479.125 821.844 510.093ZM821.844 649.784L830.534 671.044C879.672 650.82 929.741 636.863 980.038 626.909L989.87 602.436C933.639 612.619 876.934 627.032 821.844 649.784ZM821.844 370.42L830.534 391.68C931.559 349.958 1040.43 330.653 1149.64 335.098L1171.36 313.381C1058.9 305.393 937.519 322.545 821.844 370.42ZM1745.38 142.511L1613.26 10.3866C1595.21 -7.90647 1558.85 -1.37574 1532.8 24.7823L1107.6 450.088L1062.78 559.46C1052.74 584.266 1038.55 619.817 1026.21 649.872C1022.79 658.229 1018.89 667.814 1015.92 674.555L995.119 726.327C982.092 758.121 997.629 773.429 1029.16 760.737L1081.05 739.476C1087.69 736.738 1097.52 732.84 1105.74 729.417C1135.92 717.321 1171.13 702.785 1196.25 692.848L1305.54 648.151L1730.95 222.846C1757.04 196.793 1763.45 160.681 1745.38 142.511ZM1183.04 659.721L1114.23 687.722L1068.05 641.428L1081.76 607.58L1095.94 572.96L1120.17 513.06L1242.48 635.476L1183.04 659.721Z" fill="#EA580C"/>
<path d="M2027.58 575.386C2027.58 536.463 2036.13 504.027 2053.23 478.078C2069.74 451.54 2090.39 431.193 2115.16 417.039C2139.92 402.885 2164.4 395.809 2188.58 395.809C2226.32 395.809 2258.76 402.296 2285.89 415.27C2312.43 428.245 2333.66 445.052 2349.58 465.694L2399.12 308.231C2379.07 288.18 2353.71 271.962 2323.04 259.577C2291.78 247.192 2251.09 241 2200.96 241C2129.01 241 2066.8 256.039 2014.31 286.116C1961.23 316.193 1920.24 356.59 1891.35 407.309C1862.45 457.437 1848 513.463 1848 575.386C1848 637.31 1862.45 693.631 1891.35 744.349C1920.24 794.477 1961.23 834.58 2014.31 864.657C2066.8 894.734 2129.01 909.773 2200.96 909.773C2251.09 909.773 2291.78 903.581 2323.04 891.196C2353.71 878.811 2379.07 862.888 2399.12 843.426L2349.58 685.964C2333.66 706.605 2312.43 723.413 2285.89 736.387C2258.76 748.772 2226.32 754.964 2188.58 754.964C2164.4 754.964 2139.92 747.887 2115.16 733.733C2090.39 720.169 2069.74 700.118 2053.23 673.579C2036.13 647.041 2027.58 614.31 2027.58 575.386ZM2653 647.041C2653 617.553 2660.38 592.194 2675.12 570.963C2689.86 549.143 2712.27 538.232 2742.35 538.232C2771.84 538.232 2793.95 549.143 2808.7 570.963C2824.03 592.194 2831.7 617.553 2831.7 647.041C2831.7 677.118 2824.03 702.772 2808.7 724.003C2793.95 744.644 2771.84 754.964 2742.35 754.964C2712.27 754.964 2689.86 744.644 2675.12 724.003C2660.38 702.772 2653 677.118 2653 647.041ZM2492 647.041C2492 695.99 2502.62 739.336 2523.85 777.08C2545.67 814.234 2575.16 843.721 2612.31 865.542C2650.06 886.773 2693.4 897.388 2742.35 897.388C2790.71 897.388 2833.76 887.657 2871.51 868.196C2909.25 848.144 2938.74 819.247 2959.97 781.503C2981.79 744.349 2992.7 699.528 2992.7 647.041C2992.7 595.143 2981.79 550.617 2959.97 513.463C2938.74 475.719 2909.25 446.822 2871.51 426.77C2833.76 406.129 2790.71 395.809 2742.35 395.809C2693.4 395.809 2650.06 406.129 2612.31 426.77C2575.16 446.822 2545.67 475.719 2523.85 513.463C2502.62 550.617 2492 595.143 2492 647.041ZM3573.01 885.003V408.193H3405.82V705.426C3394.61 723.118 3380.46 737.862 3363.35 749.657C3346.25 761.452 3328.56 767.349 3310.28 767.349C3293.17 767.349 3279.32 760.272 3268.7 746.118C3258.08 732.554 3252.78 707.49 3252.78 670.925V408.193H3085.58V708.079C3085.58 768.234 3099.44 814.824 3127.16 847.849C3154.29 880.875 3194.69 897.388 3248.35 897.388C3276.66 897.388 3304.97 888.247 3333.28 869.965C3361 851.093 3385.18 826.324 3405.82 795.657V885.003H3573.01ZM3993.2 609.887L4086.09 486.04C4077.83 475.424 4068.4 463.629 4057.78 450.655C4046.58 437.091 4033.31 425.591 4017.97 416.155C4002.05 406.719 3982.59 402.001 3959.59 402.001C3936.59 402.001 3913 411.142 3888.82 429.424C3865.23 447.706 3844.29 471.591 3826.01 501.078L3814.51 408.193H3672.09V885.003H3839.28V587.771C3849.9 577.156 3861.4 568.309 3873.78 561.233C3886.17 554.156 3898.25 550.617 3910.05 550.617C3933.05 550.617 3949.56 556.22 3959.59 567.425C3969.61 578.63 3980.82 592.784 3993.2 609.887ZM4350.59 746.118C4350.59 759.682 4345.28 768.823 4334.67 773.541C4324.05 777.67 4310.19 779.734 4293.09 779.734C4281.89 779.734 4263.31 774.721 4237.36 764.695C4210.82 755.259 4185.17 738.746 4160.4 715.156L4110.86 826.619C4142.12 855.516 4173.96 875.568 4206.4 886.773C4239.42 897.978 4276.58 903.581 4317.86 903.581C4349.71 903.581 4380.96 897.978 4411.63 886.773C4442.3 874.978 4467.66 856.696 4487.71 831.926C4507.76 807.157 4517.78 774.426 4517.78 733.733C4517.78 708.374 4511 687.143 4497.44 670.041C4483.28 653.528 4465.89 639.669 4445.25 628.464C4424.6 617.258 4403.96 607.233 4383.32 598.387C4362.68 589.54 4345.28 580.989 4331.13 572.733C4316.98 563.886 4309.9 553.271 4309.9 540.886C4309.9 522.604 4321.4 513.463 4344.4 513.463C4355.6 513.463 4370.05 518.181 4387.74 527.617C4405.44 537.053 4426.67 553.861 4451.44 578.04L4500.98 466.578C4470.31 437.681 4440.23 417.629 4410.74 406.424C4380.67 395.219 4354.13 389.616 4331.13 389.616C4299.87 389.616 4269.8 394.039 4240.9 402.885C4212 411.732 4188.41 426.77 4170.13 448.001C4151.85 469.232 4142.71 500.194 4142.71 540.886C4142.71 570.374 4149.78 594.848 4163.94 614.31C4178.09 633.182 4195.49 648.22 4216.13 659.425C4236.77 671.22 4257.41 681.541 4278.05 690.387C4298.69 698.644 4316.09 706.9 4330.24 715.156C4343.81 723.413 4350.59 733.733 4350.59 746.118ZM4598.28 647.041C4598.28 699.528 4610.08 744.349 4633.67 781.503C4657.26 819.247 4689.11 848.144 4729.21 868.196C4769.31 887.657 4813.25 897.388 4861.02 897.388C4903.48 897.388 4941.81 890.901 4976.02 877.927C5010.81 864.362 5039.42 844.016 5061.83 816.888L4987.52 701.887C4974.54 722.528 4958.92 739.631 4940.63 753.195C4922.35 766.759 4899.94 773.541 4873.4 773.541C4854.53 773.541 4837.72 770.003 4822.98 762.926C4808.82 755.259 4796.73 745.233 4786.71 732.849L5086.59 622.271C5086.59 578.63 5076.86 539.707 5057.4 505.501C5037.94 471.296 5010.22 444.463 4974.25 425.001C4938.27 405.539 4896.4 395.809 4848.63 395.809C4800.86 395.809 4758.11 406.129 4720.36 426.77C4682.03 446.822 4652.25 475.719 4631.02 513.463C4609.19 550.617 4598.28 595.143 4598.28 647.041ZM4943.29 555.925L4753.09 627.579C4754.86 599.271 4763.41 573.617 4778.75 550.617C4794.08 527.027 4818.56 515.232 4852.17 515.232C4872.81 515.232 4890.8 518.771 4906.13 525.848C4921.47 533.514 4933.85 543.54 4943.29 555.925ZM5185.67 265.769V885.003H5359.06V563.002L5557.21 897.388L5755.37 563.002V885.003H5928.75V265.769H5755.37L5557.21 600.156L5359.06 265.769H5185.67ZM6305.6 622.271V639.964C6289.68 631.118 6271.1 623.156 6249.87 616.079C6228.05 609.592 6204.46 606.348 6179.1 606.348C6131.33 606.348 6090.93 617.848 6057.91 640.848C6025.47 663.259 6009.25 698.349 6009.25 746.118C6009.25 786.811 6016.92 817.772 6032.25 839.003C6047.59 860.824 6067.05 876.157 6090.64 885.003C6114.23 893.26 6137.52 897.388 6160.52 897.388C6192.37 897.388 6220.68 891.491 6245.45 879.696C6269.63 867.901 6289.68 853.157 6305.6 835.465V885.003H6472.79V585.117C6472.79 524.963 6456.87 478.373 6425.03 445.347C6393.18 412.321 6350.42 395.809 6296.76 395.809C6248.99 395.809 6203.58 405.244 6160.52 424.116C6117.47 442.399 6077.37 463.04 6040.22 486.04L6102.14 572.733C6126.91 555.63 6152.27 543.54 6178.22 536.463C6204.17 529.386 6223.04 525.848 6234.83 525.848C6264.32 525.848 6283.49 533.22 6292.33 547.963C6301.18 562.117 6305.6 586.887 6305.6 622.271ZM6305.6 720.464V770.003C6297.35 778.849 6287.02 786.811 6274.64 793.888C6262.85 800.375 6249.58 803.618 6234.83 803.618C6217.14 803.618 6205.05 797.131 6198.56 784.157C6192.08 771.182 6188.83 759.093 6188.83 747.887C6188.83 736.092 6193.25 724.887 6202.1 714.272C6210.36 703.656 6223.33 698.349 6241.02 698.349C6259.31 698.349 6273.17 700.708 6282.6 705.426C6292.04 710.733 6299.7 715.746 6305.6 720.464ZM6739.07 408.193H6571.87V1064.58H6739.07V837.234C6779.17 877.337 6827.23 897.388 6883.26 897.388C6928.08 897.388 6966.41 886.478 6998.26 864.657C7030.11 842.837 7054.58 813.054 7071.68 775.311C7088.2 736.977 7096.45 693.926 7096.45 646.156C7096.45 598.387 7088.2 555.335 7071.68 517.001C7054.58 479.258 7030.11 449.77 6998.26 428.539C6966.41 406.719 6928.08 395.809 6883.26 395.809C6855.54 395.809 6829.3 401.706 6804.53 413.501C6779.76 424.706 6757.94 440.334 6739.07 460.386V408.193ZM6739.07 719.58V572.733C6763.83 541.476 6795.39 525.848 6833.72 525.848C6863.8 525.848 6887.39 536.758 6904.49 558.579C6921 580.399 6929.26 609.592 6929.26 646.156C6929.26 682.72 6921 711.913 6904.49 733.733C6887.39 756.144 6863.8 767.349 6833.72 767.349C6795.98 767.349 6764.42 751.426 6739.07 719.58ZM7356.53 408.193H7189.34V1064.58H7356.53V837.234C7397.22 877.337 7445.58 897.388 7501.61 897.388C7546.43 897.388 7584.76 886.478 7616.61 864.657C7647.87 842.837 7672.04 813.054 7689.15 775.311C7706.25 736.977 7714.8 693.926 7714.8 646.156C7714.8 598.387 7706.25 555.335 7689.15 517.001C7672.04 479.258 7647.87 449.77 7616.61 428.539C7584.76 406.719 7546.43 395.809 7501.61 395.809C7473.3 395.809 7446.76 401.706 7421.99 413.501C7397.22 424.706 7375.4 440.334 7356.53 460.386V408.193ZM7356.53 719.58V572.733C7381.3 541.476 7413.15 525.848 7452.07 525.848C7481.56 525.848 7504.85 536.758 7521.95 558.579C7539.06 580.399 7547.61 609.592 7547.61 646.156C7547.61 682.72 7539.06 711.913 7521.95 733.733C7504.85 756.144 7481.56 767.349 7452.07 767.349C7414.33 767.349 7382.48 751.426 7356.53 719.58ZM7807.69 647.041C7807.69 699.528 7819.48 744.349 7843.07 781.503C7866.66 819.247 7898.51 848.144 7938.61 868.196C7978.12 887.657 8022.06 897.388 8070.42 897.388C8112.29 897.388 8150.62 890.901 8185.42 877.927C8220.21 864.362 8248.52 844.016 8270.34 816.888L8196.04 701.887C8183.06 722.528 8167.43 739.631 8149.15 753.195C8130.87 766.759 8108.75 773.541 8082.8 773.541C8063.34 773.541 8046.53 770.003 8032.38 762.926C8017.64 755.259 8005.55 745.233 7996.11 732.849L8295.11 622.271C8295.11 578.63 8285.68 539.707 8266.81 505.501C8247.34 471.296 8219.63 444.463 8183.65 425.001C8147.68 405.539 8105.8 395.809 8058.03 395.809C8009.68 395.809 7966.62 406.129 7928.88 426.77C7891.14 446.822 7861.35 475.719 7839.53 513.463C7818.3 550.617 7807.69 595.143 7807.69 647.041ZM8151.8 555.925L7962.5 627.579C7964.26 599.271 7972.82 573.617 7988.15 550.617C8002.89 527.027 8027.37 515.232 8061.57 515.232C8082.21 515.232 8100.2 518.771 8115.53 525.848C8130.87 533.514 8142.96 543.54 8151.8 555.925ZM8709.12 609.887L8802 486.04C8793.74 475.424 8784.31 463.629 8773.69 450.655C8763.08 437.091 8749.81 425.591 8733.88 416.155C8717.96 406.719 8698.5 402.001 8675.5 402.001C8652.5 402.001 8628.91 411.142 8604.73 429.424C8581.14 447.706 8560.2 471.591 8541.92 501.078L8530.42 408.193H8388V885.003H8555.19V587.771C8566.4 577.156 8578.19 568.309 8590.58 561.233C8602.96 554.156 8614.76 550.617 8625.96 550.617C8648.96 550.617 8665.47 556.22 8675.5 567.425C8685.53 578.63 8696.73 592.784 8709.12 609.887Z" fill="url(#paint0_linear_2003_28214)"/>
<defs>
<linearGradient id="paint0_linear_2003_28214" x1="2456" y1="607.397" x2="8718.5" y2="638.397" gradientUnits="userSpaceOnUse">
<stop stop-color="#EA580C"/>
<stop offset="0.00194543" stop-color="#0277BD"/>
<stop offset="0.41882" stop-color="#0277BD"/>
<stop offset="0.430171" stop-color="#EA580C"/>
<stop offset="0.56362" stop-color="#EA580C"/>
<stop offset="0.567299" stop-color="#0277BD"/>
<stop offset="1" stop-color="#0277BD"/>
</linearGradient>
</defs>
</svg>
