<svg width="940" height="608" viewBox="0 0 940 608" fill="none" xmlns="http://www.w3.org/2000/svg">
<path d="M318.35 284.381C224.879 245.66 142.786 242.174 67.4112 273.491L62.7695 262.056C141.311 229.518 226.598 233.126 323.123 273.012L318.35 284.381V284.381ZM323.123 347.767C226.711 307.937 141.311 304.329 62.7695 336.811L67.4206 348.189C143.03 316.995 225.001 320.546 318.359 359.145L323.123 347.767ZM323.123 198.248C226.711 158.428 141.311 154.81 62.7695 187.236L67.4206 198.68C143.03 167.42 225.001 170.962 318.359 209.636L323.123 198.248Z" fill="#0277BD"/>
<path d="M738.976 345.747V552.515C565.489 442.639 415.491 543.27 415.491 560.455V194.34C415.491 129.31 501.502 94.1975 607.461 94.1975C636.701 94.1975 664.1 98.6042 688.821 105.755L724.544 70.031C547.016 15.7034 410.727 95.964 392.001 113.281C365.204 87.3385 211.044 -2.52487 0 89.1143V591.781H320.667C331.679 601.262 357.734 607.999 388.205 607.999C418.667 607.999 444.731 601.262 455.866 591.781H776.42V308.248L738.976 345.747V345.747ZM363.371 560.455C363.371 543.27 213.252 442.639 40.0082 552.506V126.191C74.266 106.375 120.513 94.1975 171.411 94.1975C277.36 94.1975 363.371 129.31 363.371 194.34V560.455Z" fill="#0277BD"/>
<path d="M439.857 273.007L444.508 284.385C481.331 269.098 519.263 260.839 556.575 256.432L561.958 243.466C521.339 247.562 479.988 256.432 439.857 273.007V273.007ZM439.857 347.771L444.508 359.149C470.808 348.325 497.605 340.855 524.525 335.528L529.787 322.43C499.691 327.879 469.342 335.593 439.857 347.771ZM439.857 198.252L444.508 209.631C498.578 187.301 556.849 176.969 615.299 179.347L626.922 167.725C566.732 163.449 501.768 172.629 439.857 198.252V198.252ZM934.143 76.2733L863.429 5.55901C853.77 -4.23162 834.311 -0.736307 820.367 13.2637L592.796 240.891L568.808 299.428C563.434 312.705 555.842 331.732 549.236 347.818C547.404 352.29 545.318 357.42 543.73 361.028L532.596 388.737C525.624 405.753 533.94 413.947 550.815 407.153L578.589 395.775C582.141 394.309 587.403 392.223 591.8 390.391C607.952 383.917 626.8 376.137 640.246 370.819L698.736 346.897L926.42 119.269C940.382 105.326 943.812 85.9981 934.143 76.2733V76.2733ZM633.171 353.089L596.348 368.075L571.627 343.298L578.965 325.183L586.557 306.654L599.524 274.595L664.986 340.113L633.171 353.089V353.089Z" fill="#0277BD"/>
</svg>
