<svg width="8664" height="1136" viewBox="0 0 8664 1136" fill="none" xmlns="http://www.w3.org/2000/svg">
<path d="M1708.54 400.575V536.588C1708.54 728.607 1810.37 839.163 1983.48 839.163C2139.86 839.163 2238.05 744.609 2238.05 587.502V570.773H2182.77V587.502C2182.77 716.242 2120.95 790.431 1983.48 790.431C1844.56 790.431 1763.1 698.059 1763.1 538.77V398.393C1763.1 239.832 1842.38 146.732 1983.48 146.732C2111.49 146.732 2182.77 224.558 2182.77 352.57V367.117H2238.05V352.57C2238.05 195.464 2149.32 98 1983.48 98C1813.28 98 1708.54 209.284 1708.54 400.575ZM2343.52 572.228C2343.52 727.152 2441.71 839.163 2592.27 839.163C2742.83 839.163 2840.29 727.152 2840.29 572.228C2840.29 418.031 2742.83 306.02 2592.27 306.02C2441.71 306.02 2343.52 418.031 2343.52 572.228ZM2394.43 572.228C2394.43 448.58 2470.8 352.57 2592.27 352.57C2712.28 352.57 2789.38 443.488 2789.38 572.228C2789.38 699.513 2712.28 792.613 2592.27 792.613C2470.8 792.613 2394.43 704.605 2394.43 572.228ZM3412.71 825.344V319.84H3361.8V578.774C3361.8 719.152 3281.79 788.249 3176.32 788.249C3081.77 788.249 3019.95 741.699 3019.95 629.688V319.84H2969.03V633.325C2969.03 770.793 3062.86 835.527 3166.14 835.527C3270.15 835.527 3322.52 783.158 3349.43 731.516H3363.98V825.344H3412.71ZM3628.73 319.84H3580V825.344H3630.91V500.221C3630.91 407.848 3678.92 364.935 3756.02 364.935H3838.21V317.658H3765.47C3697.1 317.658 3661.46 337.296 3641.1 382.391H3628.73V319.84ZM3937.13 444.943C3937.13 536.588 4012.77 570.773 4114.6 586.048L4169.15 594.048C4252.79 606.413 4313.16 625.324 4313.16 684.239C4313.16 747.518 4249.88 792.613 4152.42 792.613C4050.59 792.613 3980.04 740.245 3945.13 647.872L3898.58 667.51C3932.03 752.609 4012.77 839.163 4152.42 839.163C4282.61 839.163 4364.08 772.975 4364.08 683.512C4364.08 599.867 4294.98 564.227 4177.88 546.771L4122.6 538.77C4048.41 527.86 3988.04 508.222 3988.04 443.488C3988.04 383.119 4043.32 350.388 4119.69 350.388C4198.97 350.388 4272.43 388.937 4321.89 467.491L4364.08 442.034C4293.52 345.297 4216.43 306.02 4118.23 306.02C4017.86 306.02 3937.13 358.389 3937.13 444.943ZM4455.72 568.591C4455.72 721.334 4555.37 839.163 4708.84 839.163C4840.49 839.163 4896.49 767.156 4929.95 698.059L4881.22 678.42C4852.85 742.427 4804.85 792.613 4708.84 792.613C4593.92 792.613 4515.36 713.333 4508.82 583.866H4945.22V551.135C4945.22 397.666 4842.67 306.02 4705.93 306.02C4564.82 306.02 4455.72 419.486 4455.72 568.591ZM4508.82 538.77C4520.46 423.85 4601.92 352.57 4705.93 352.57C4810.67 352.57 4888.49 418.031 4892.13 538.77H4508.82ZM5079.78 112.547V825.344H5135.06V177.28H5146.7L5394.72 825.344H5477.64L5725.66 177.28H5737.3V825.344H5792.58V112.547H5690.75L5442 762.065H5430.36L5181.61 112.547H5079.78ZM5937.32 464.581L5981.69 484.947C6018.78 407.848 6073.33 352.57 6174.44 352.57C6276.99 352.57 6338.09 407.848 6338.09 494.402V536.588L6105.34 558.409C6010.78 567.137 5932.96 609.323 5932.96 691.512C5932.96 783.158 6008.6 839.163 6120.61 839.163C6239.9 839.163 6298.81 782.43 6326.45 728.607H6338.09V825.344H6389V498.039C6389 380.937 6311.18 306.02 6176.62 306.02C6049.33 306.02 5971.51 385.301 5937.32 464.581ZM5983.87 693.695C5983.87 642.781 6027.51 609.323 6115.52 601.322L6338.09 580.956V588.957C6338.09 719.879 6246.44 794.795 6122.79 794.795C6039.88 794.795 5983.87 759.883 5983.87 693.695ZM6550.47 1029H6601.39V727.152H6613.02C6642.12 782.431 6698.12 839.163 6808.68 839.163C6943.96 839.163 7047.25 733.698 7047.25 572.228C7047.25 411.485 6943.96 306.02 6808.68 306.02C6698.12 306.02 6642.12 362.753 6613.02 418.031H6599.2V319.84H6550.47V1029ZM6799.95 792.613C6683.58 792.613 6601.39 704.605 6601.39 572.228C6601.39 439.852 6683.58 352.57 6799.95 352.57C6915.6 352.57 6994.15 438.397 6994.15 572.228C6994.15 706.787 6915.6 792.613 6799.95 792.613ZM7181.81 1029H7232.72V727.152H7244.36C7273.45 782.431 7329.46 839.163 7440.01 839.163C7575.3 839.163 7678.58 733.698 7678.58 572.228C7678.58 411.485 7575.3 306.02 7440.01 306.02C7329.46 306.02 7273.45 362.753 7244.36 418.031H7230.54V319.84H7181.81V1029ZM7431.29 792.613C7314.91 792.613 7232.72 704.605 7232.72 572.228C7232.72 439.852 7314.91 352.57 7431.29 352.57C7546.93 352.57 7625.49 438.397 7625.49 572.228C7625.49 706.787 7546.93 792.613 7431.29 792.613ZM7780.41 568.591C7780.41 721.334 7880.06 839.163 8033.53 839.163C8165.18 839.163 8221.18 767.156 8254.64 698.059L8205.91 678.42C8177.54 742.427 8129.54 792.613 8033.53 792.613C7918.61 792.613 7840.05 713.333 7833.51 583.866H8269.91V551.135C8269.91 397.666 8167.36 306.02 8030.62 306.02C7889.51 306.02 7780.41 419.486 7780.41 568.591ZM7833.51 538.77C7845.14 423.85 7926.61 352.57 8030.62 352.57C8135.35 352.57 8213.18 418.031 8216.82 538.77H7833.51ZM8453.2 319.84H8404.47V825.344H8455.39V500.221C8455.39 407.848 8503.39 364.935 8580.49 364.935H8663.41V317.658H8589.94C8521.57 317.658 8485.93 337.296 8465.57 382.391H8453.2V319.84Z" fill="#0277BD"/>
<path d="M622.787 150.661C471.93 64.5926 310.078 12.6584 153.277 0V882.473C310.063 894.784 471.628 945.296 622.787 1029.16V150.661Z" fill="#0277BD"/>
<path d="M617.668 1074.8C629.978 1079 642.939 1079.18 655.25 1074.98C831.545 998.711 1016.17 964.38 1196.64 972.29V98.5884C1180.32 97.9167 1163.98 97.6393 1147.64 97.7566V908.287L1134.76 909.134C973.358 919.675 806.092 972.305 650.486 1061.1C641.516 1064.16 631.78 1064.16 622.81 1061.1C467.189 972.305 299.938 919.675 138.539 909.134L125.624 908.287V97.7566C109.291 97.6318 92.9577 97.9091 76.6387 98.5884V972.29C257.093 964.365 441.327 998.529 617.668 1074.8V1074.8Z" fill="#0277BD"/>
<path d="M1273.28 196.663C1257.1 194.41 1240.66 193.215 1224.33 191.597V1001.46L1209.69 1000.61C1025.25 990.043 830.69 1027.49 650.493 1107.46L636.64 1113.22L622.802 1107.46C442.575 1027.49 248.026 990.028 63.5944 1000.61L48.97 1001.46V191.597C32.6215 193.23 16.1822 194.425 0 196.663V1084.52C5.73874 1087.58 11.0478 1091.38 15.789 1095.83C211.654 1069.37 414.944 1072.6 608.329 1135.92C617.742 1134.98 627.195 1134.5 636.655 1134.49C646.652 1134.49 656.089 1135.05 664.966 1135.92C858.321 1072.59 1061.64 1069.37 1257.49 1095.83C1257.49 1095.83 1264.66 1088.85 1273.28 1084.52V196.663Z" fill="#0277BD"/>
<path d="M860.474 55.3824V367.305L800.282 295.65L736.839 367.305V105.698C707.497 119.576 678.7 134.58 650.514 150.676V1029.16C801.643 945.296 963.253 894.784 1120.02 882.473V0C1034.14 6.9417 946.738 25.7251 860.474 55.3824V55.3824Z" fill="#0277BD"/>
</svg>
