<?xml version="1.0" encoding="UTF-8" standalone="no"?> <svg width="64" height="64" viewBox="0 0 64 64" fill="none" xmlns="http://www.w3.org/2000/svg">
<path d="M54 55.7501H17.4L22.66 54.5801C22.8925 54.5298 23.1049 54.4114 23.27 54.2401L55.17 22.3501C56.9629 20.5572 57.9701 18.1256 57.9701 15.5901C57.9701 13.0546 56.9629 10.623 55.17 8.83011C53.3771 7.03725 50.9455 6.03003 48.41 6.03003C45.8745 6.03003 43.4429 7.03725 41.65 8.83011L29.07 21.4201L9.76 40.7301C9.5887 40.8952 9.47035 41.1076 9.42 41.3401L6.14 56.1001C6.01674 56.2154 5.9185 56.3547 5.85141 56.5096C5.78431 56.6644 5.7498 56.8314 5.75 57.0001C5.75 57.3316 5.8817 57.6496 6.11612 57.884C6.35054 58.1184 6.66848 58.2501 7 58.2501H54C54.3315 58.2501 54.6495 58.1184 54.8839 57.884C55.1183 57.6496 55.25 57.3316 55.25 57.0001C55.25 56.6686 55.1183 56.3507 54.8839 56.1162C54.6495 55.8818 54.3315 55.7501 54 55.7501V55.7501ZM43.42 10.6001C44.7461 9.27403 46.5446 8.52905 48.42 8.52905C49.3486 8.52905 50.2681 8.71194 51.126 9.0673C51.9839 9.42265 52.7634 9.9435 53.42 10.6001C54.0766 11.2567 54.5975 12.0362 54.9528 12.8941C55.3082 13.752 55.4911 14.6715 55.4911 15.6001C55.4911 16.5287 55.3082 17.4482 54.9528 18.3061C54.5975 19.164 54.0766 19.9435 53.42 20.6001L49.57 24.4501C49.57 24.3001 49.57 24.1501 49.57 24.0001C49.5701 22.7085 49.308 21.4303 48.7995 20.243C48.2909 19.0556 47.5466 17.984 46.6116 17.0929C45.6765 16.2018 44.5703 15.5099 43.3599 15.059C42.1495 14.6082 40.8601 14.4078 39.57 14.4701L43.42 10.6001ZM45 19.0001C46.2568 20.262 46.991 21.9518 47.0559 23.7315C47.1207 25.5113 46.5115 27.25 45.35 28.6001C45.35 28.4601 45.35 28.3301 45.35 28.1901C45.3516 26.8981 45.0904 25.6192 44.5824 24.4312C44.0743 23.2432 43.33 22.171 42.3947 21.2796C41.4593 20.3882 40.3525 19.6964 39.1415 19.2461C37.9304 18.7957 36.6405 18.5964 35.35 18.6601C36.7019 17.4828 38.4505 16.863 40.2421 16.9261C42.0336 16.9892 43.7343 17.7306 45 19.0001Z" fill="black"/>
</svg>
